<svg width="773" height="434" viewBox="0 0 773 434" fill="none" xmlns="http://www.w3.org/2000/svg">
<path d="M97.4938 311.457V300.801H138.582V311.457H97.4938ZM82.0378 324.993L111.222 262.881H125.046L154.518 324.993H140.598L115.062 269.025H121.206L95.8618 324.993H82.0378ZM165.372 262.881H178.14V324.993H165.372V262.881ZM266.117 318.657H260.069L295.781 262.881H308.549V324.993H295.781V279.873L298.853 280.737L270.341 324.993H256.037L227.525 280.929L230.597 280.065V324.993H217.829V262.881H230.597L266.117 318.657ZM336.066 299.073V314.337H383.97V324.993H323.298V262.881H383.874V273.537H336.066V288.993H375.234V299.073H336.066ZM409.847 299.073V314.337H457.751V324.993H397.079V262.881H457.655V273.537H409.847V288.993H449.015V299.073H409.847ZM465.388 262.881H530.86V273.537H465.388V262.881ZM491.788 272.193H504.556V324.993H491.788V272.193ZM597.166 297.537V262.881H609.934V298.881C609.934 302.977 609.326 306.561 608.11 309.633C606.958 312.705 605.294 315.297 603.118 317.409C600.942 319.521 598.382 321.249 595.438 322.593C592.558 323.873 589.39 324.801 585.934 325.377C582.542 325.953 578.958 326.241 575.182 326.241C571.278 326.241 567.566 325.953 564.046 325.377C560.526 324.801 557.294 323.873 554.35 322.593C551.47 321.249 548.974 319.521 546.862 317.409C544.75 315.297 543.086 312.705 541.87 309.633C540.718 306.561 540.142 302.977 540.142 298.881V262.881H552.91V297.537C552.91 302.401 553.87 306.113 555.79 308.673C557.71 311.169 560.334 312.897 563.662 313.857C567.054 314.753 570.894 315.201 575.182 315.201C579.342 315.201 583.054 314.753 586.318 313.857C589.646 312.897 592.27 311.169 594.19 308.673C596.174 306.113 597.166 302.401 597.166 297.537ZM635.744 304.833V294.657H664.16C667.552 294.657 670.24 293.761 672.224 291.969C674.208 290.113 675.2 287.553 675.2 284.289C675.2 280.897 674.208 278.305 672.224 276.513C670.24 274.721 667.552 273.825 664.16 273.825H637.28V324.993H624.512V262.881H663.008C666.464 262.881 669.696 263.297 672.704 264.129C675.776 264.961 678.432 266.241 680.672 267.969C682.976 269.697 684.768 271.905 686.048 274.593C687.328 277.281 687.968 280.513 687.968 284.289C687.968 288.001 687.328 291.169 686.048 293.793C684.768 296.417 682.976 298.561 680.672 300.225C678.432 301.825 675.776 303.009 672.704 303.777C669.696 304.481 666.464 304.833 663.008 304.833H635.744Z" fill="black"/>
<path opacity="0.8" d="M1.17144 416.993C0.390367 416.993 -0.000169351 416.732 -0.000169351 416.212C-0.000169351 415.691 0.364331 415.352 1.09333 415.196L2.26494 414.962C3.30637 414.754 4.08744 414.259 4.60816 413.478C5.12888 412.645 5.57148 411.499 5.93598 410.041L18.0426 361.224C18.1468 360.703 18.303 360.365 18.5113 360.209C18.7716 360.053 19.0059 359.974 19.2142 359.974C19.4746 359.974 19.7089 360.053 19.9172 360.209C20.1775 360.365 20.3598 360.703 20.4639 361.224L32.8049 410.744C33.1694 412.202 33.586 413.218 34.0546 413.79C34.5232 414.363 35.2522 414.754 36.2416 414.962L37.4132 415.196C38.1422 415.352 38.5067 415.691 38.5067 416.212C38.5067 416.732 38.1162 416.993 37.3351 416.993H23.9788C23.2498 416.993 22.8853 416.706 22.8853 416.134C22.8853 415.561 23.3279 415.248 24.2131 415.196L25.6971 415.04C26.5823 414.936 27.1291 414.65 27.3374 414.181C27.5977 413.712 27.5977 412.905 27.3374 411.76L24.3693 399.653C24.0569 398.299 23.1977 397.622 21.7918 397.622H13.5905C12.2366 397.622 11.3775 398.299 11.013 399.653L8.35731 410.119C7.57624 413.087 8.35731 414.728 10.7005 415.04L11.8721 415.196C12.7574 415.352 13.2 415.665 13.2 416.134C13.2 416.706 12.8355 416.993 12.1065 416.993H1.17144ZM13.3562 395.279H21.948C22.7811 395.279 23.1196 394.836 22.9634 393.951L17.9645 373.018H17.574L12.3408 393.951C12.1846 394.836 12.523 395.279 13.3562 395.279ZM49.1318 382.157C51.2667 378.512 53.8442 376.689 56.8644 376.689C58.5827 376.689 59.8585 377.21 60.6916 378.252C61.5248 379.241 61.9413 380.36 61.9413 381.61C61.9413 382.599 61.681 383.407 61.1603 384.031C60.6916 384.656 59.9366 384.969 58.8952 384.969C58.062 384.969 57.4372 384.787 57.0206 384.422C56.6561 384.005 56.3437 383.537 56.0833 383.016C55.875 382.495 55.6147 382.053 55.3022 381.688C54.9898 381.272 54.4691 381.063 53.7401 381.063C52.8028 381.063 51.9176 381.636 51.0844 382.782C50.2513 383.875 49.5483 385.359 48.9755 387.234C48.4548 389.108 48.1945 391.243 48.1945 393.639V411.76C48.1945 412.853 48.3507 413.634 48.6631 414.103C49.0276 414.571 49.7566 414.858 50.8501 414.962L52.959 415.196C53.5318 415.3 53.8182 415.587 53.8182 416.055C53.8182 416.68 53.4277 416.993 52.6466 416.993H39.4464C38.6654 416.993 38.2748 416.706 38.2748 416.134C38.2748 415.665 38.6133 415.352 39.2902 415.196L40.2275 415.04C41.321 414.832 42.024 414.519 42.3364 414.103C42.7009 413.634 42.8832 412.853 42.8832 411.76V385.516C42.8832 384.578 42.727 383.953 42.4145 383.641C42.1542 383.276 41.6595 383.042 40.9305 382.938L39.2902 382.704C38.6133 382.652 38.2748 382.365 38.2748 381.844C38.2748 381.428 38.6914 381.141 39.5246 380.985C41.1388 380.725 42.3625 380.308 43.1956 379.736C44.0808 379.163 44.9921 378.46 45.9294 377.627C46.398 377.158 46.7885 376.924 47.101 376.924C47.5696 376.924 47.8039 377.236 47.8039 377.861V382.079C47.8039 382.443 47.9601 382.678 48.2726 382.782C48.585 382.834 48.8714 382.626 49.1318 382.157ZM73.4512 417.696C71.6287 417.696 70.1186 417.071 68.921 415.821C67.7754 414.519 67.2026 412.41 67.2026 409.494V380.282C67.2026 379.657 66.8902 379.345 66.2653 379.345H64.0002C63.1671 379.345 62.7505 379.033 62.7505 378.408C62.7505 377.991 62.9848 377.627 63.4535 377.314C65.1718 376.117 66.5517 374.841 67.5931 373.487C68.6346 372.081 69.5458 370.18 70.3269 367.785C70.6914 366.692 71.134 366.145 71.6547 366.145C72.2275 366.145 72.5139 366.561 72.5139 367.395V376.065C72.5139 376.794 72.8784 377.158 73.6074 377.158H78.6844C79.5175 377.158 79.9341 377.523 79.9341 378.252C79.9341 378.981 79.5175 379.345 78.6844 379.345H73.6074C72.8784 379.345 72.5139 379.71 72.5139 380.439V409.573C72.5139 410.718 72.6961 411.629 73.0606 412.306C73.4251 412.931 74.1021 413.244 75.0914 413.244C76.1849 413.244 77.0702 412.697 77.7471 411.603C78.4761 410.51 78.9447 408.739 79.153 406.292C79.2572 405.563 79.5956 405.199 80.1684 405.199C80.7933 405.199 81.1057 405.589 81.1057 406.37C80.9495 410.38 80.1163 413.27 78.6063 415.04C77.1483 416.81 75.4299 417.696 73.4512 417.696ZM91.087 369.738C89.9935 369.738 89.0562 369.347 88.2751 368.566C87.5461 367.785 87.1816 366.796 87.1816 365.598C87.1816 364.4 87.5461 363.437 88.2751 362.708C89.0562 361.927 89.9935 361.537 91.087 361.537C92.1805 361.537 93.0917 361.927 93.8207 362.708C94.5497 363.437 94.9142 364.4 94.9142 365.598C94.9142 366.796 94.5497 367.785 93.8207 368.566C93.0917 369.347 92.1805 369.738 91.087 369.738ZM84.5259 416.993C83.7449 416.993 83.3543 416.706 83.3543 416.134C83.3543 415.665 83.6928 415.352 84.3697 415.196L85.307 415.04C86.6088 414.832 87.4419 414.519 87.8064 414.103C88.1709 413.634 88.3532 412.853 88.3532 411.76V385.516C88.3532 384.578 88.197 383.953 87.8846 383.641C87.6242 383.276 87.1295 383.042 86.4005 382.938L84.7603 382.704C84.0833 382.652 83.7449 382.365 83.7449 381.844C83.7449 381.428 84.1614 381.141 84.9946 380.985C86.6088 380.725 87.9106 380.308 88.9 379.736C89.8893 379.163 90.8526 378.46 91.7899 377.627C92.2586 377.158 92.6491 376.924 92.9615 376.924C93.4302 376.924 93.6645 377.236 93.6645 377.861V411.76C93.6645 412.853 93.8207 413.634 94.1331 414.103C94.4456 414.571 95.0444 414.858 95.9296 414.962L97.8823 415.196C98.4551 415.3 98.7415 415.587 98.7415 416.055C98.7415 416.68 98.3509 416.993 97.5699 416.993H84.5259ZM101.761 416.993C100.98 416.993 100.589 416.706 100.589 416.134C100.589 415.561 100.928 415.248 101.605 415.196L103.167 415.04C104.469 414.936 105.302 414.65 105.666 414.181C106.031 413.66 106.213 412.853 106.213 411.76V381.22C106.213 379.97 105.588 379.345 104.338 379.345H102.542C101.917 379.345 101.605 379.085 101.605 378.564C101.605 378.043 101.917 377.757 102.542 377.705C104.989 377.444 106.213 376.377 106.213 374.502V374.034C106.213 371.326 106.734 368.801 107.775 366.457C108.869 364.114 110.483 362.213 112.618 360.755C114.753 359.297 117.382 358.568 120.507 358.568C123.683 358.568 126.234 359.193 128.161 360.443C130.088 361.693 131.051 363.151 131.051 364.817C131.051 365.806 130.791 366.614 130.27 367.238C129.801 367.811 129.02 368.098 127.927 368.098C126.833 368.098 126.026 367.733 125.505 367.004C124.985 366.275 124.49 365.442 124.021 364.505C123.605 363.515 123.032 362.656 122.303 361.927C121.574 361.198 120.454 360.834 118.944 360.834C117.643 360.834 116.419 361.12 115.273 361.693C114.18 362.266 113.269 363.281 112.54 364.739C111.863 366.197 111.524 368.254 111.524 370.909V376.221C111.524 376.846 111.837 377.158 112.461 377.158H129.02C130.27 377.158 130.895 377.783 130.895 379.033V411.76C130.895 412.853 131.051 413.634 131.363 414.103C131.676 414.571 132.275 414.858 133.16 414.962L135.113 415.196C135.685 415.3 135.972 415.587 135.972 416.055C135.972 416.68 135.581 416.993 134.8 416.993H121.756C120.975 416.993 120.585 416.706 120.585 416.134C120.585 415.665 120.923 415.352 121.6 415.196L122.537 415.04C123.839 414.832 124.672 414.519 125.037 414.103C125.401 413.634 125.584 412.853 125.584 411.76V380.439C125.584 379.71 125.219 379.345 124.49 379.345H112.461C111.837 379.345 111.524 379.657 111.524 380.282V411.76C111.524 412.853 111.68 413.634 111.993 414.103C112.305 414.571 112.904 414.858 113.789 414.962L115.742 415.196C116.315 415.3 116.601 415.587 116.601 416.055C116.601 416.68 116.211 416.993 115.43 416.993H101.761ZM150.856 417.696C148.565 417.696 146.482 416.941 144.608 415.431C142.785 413.868 141.327 411.655 140.234 408.791C139.14 405.928 138.593 402.517 138.593 398.559C138.593 394.133 139.244 390.28 140.546 387C141.9 383.719 143.722 381.194 146.013 379.423C148.305 377.601 150.856 376.689 153.668 376.689C156.063 376.689 157.938 377.158 159.292 378.095C159.812 378.46 160.073 379.033 160.073 379.814L160.229 389.343C160.229 390.124 159.917 390.514 159.292 390.514C158.719 390.514 158.354 390.176 158.198 389.499C157.469 386.635 156.766 384.422 156.089 382.86C155.412 381.298 154.709 380.23 153.98 379.657C153.251 379.033 152.444 378.72 151.559 378.72C150.518 378.72 149.424 379.319 148.279 380.517C147.185 381.714 146.248 383.667 145.467 386.375C144.738 389.03 144.373 392.545 144.373 396.919C144.373 402.491 145.076 406.683 146.482 409.494C147.94 412.306 149.815 413.712 152.106 413.712C153.928 413.712 155.438 412.957 156.636 411.447C157.886 409.937 158.953 407.203 159.838 403.246C159.995 402.673 160.307 402.387 160.776 402.387C161.401 402.387 161.635 402.907 161.479 403.949C160.906 407.594 160.099 410.432 159.057 412.463C158.068 414.441 156.87 415.821 155.464 416.602C154.111 417.331 152.574 417.696 150.856 417.696ZM172.169 369.738C171.076 369.738 170.138 369.347 169.357 368.566C168.628 367.785 168.264 366.796 168.264 365.598C168.264 364.4 168.628 363.437 169.357 362.708C170.138 361.927 171.076 361.537 172.169 361.537C173.263 361.537 174.174 361.927 174.903 362.708C175.632 363.437 175.996 364.4 175.996 365.598C175.996 366.796 175.632 367.785 174.903 368.566C174.174 369.347 173.263 369.738 172.169 369.738ZM165.608 416.993C164.827 416.993 164.436 416.706 164.436 416.134C164.436 415.665 164.775 415.352 165.452 415.196L166.389 415.04C167.691 414.832 168.524 414.519 168.889 414.103C169.253 413.634 169.435 412.853 169.435 411.76V385.516C169.435 384.578 169.279 383.953 168.967 383.641C168.706 383.276 168.212 383.042 167.483 382.938L165.842 382.704C165.165 382.652 164.827 382.365 164.827 381.844C164.827 381.428 165.244 381.141 166.077 380.985C167.691 380.725 168.993 380.308 169.982 379.736C170.971 379.163 171.935 378.46 172.872 377.627C173.341 377.158 173.731 376.924 174.044 376.924C174.512 376.924 174.747 377.236 174.747 377.861V411.76C174.747 412.853 174.903 413.634 175.215 414.103C175.528 414.571 176.126 414.858 177.012 414.962L178.964 415.196C179.537 415.3 179.824 415.587 179.824 416.055C179.824 416.68 179.433 416.993 178.652 416.993H165.608ZM190.029 417.696C187.842 417.696 186.045 417.019 184.639 415.665C183.233 414.259 182.53 412.41 182.53 410.119C182.53 407.88 183.233 405.771 184.639 403.793C186.045 401.762 187.972 399.939 190.419 398.325C192.867 396.711 195.652 395.409 198.777 394.42C199.454 394.211 199.792 393.769 199.792 393.092V385.984C199.792 383.485 199.402 381.714 198.621 380.673C197.839 379.579 196.772 379.033 195.418 379.033C194.116 379.033 192.919 379.631 191.825 380.829C190.784 381.975 190.029 383.927 189.56 386.687C189.3 388.353 188.727 389.577 187.842 390.358C187.009 391.087 186.149 391.452 185.264 391.452C183.806 391.452 183.077 390.723 183.077 389.265C183.077 387.755 183.494 386.271 184.327 384.813C185.212 383.302 186.358 381.949 187.764 380.751C189.17 379.501 190.706 378.512 192.372 377.783C194.038 377.054 195.705 376.689 197.371 376.689C202.526 376.689 205.103 379.683 205.103 385.672V409.573C205.103 411.76 205.65 412.853 206.744 412.853C207.421 412.853 208.045 412.41 208.618 411.525C209.191 410.588 209.477 409.026 209.477 406.839C209.477 406.006 209.816 405.589 210.493 405.589C211.118 405.589 211.43 406.032 211.43 406.917C211.43 410.718 210.753 413.478 209.399 415.196C208.098 416.863 206.614 417.696 204.947 417.696C203.698 417.696 202.708 417.201 201.979 416.212C201.25 415.17 200.755 413.947 200.495 412.541C200.443 412.02 200.209 411.76 199.792 411.76C199.428 411.707 199.063 411.942 198.699 412.463C197.449 414.181 196.173 415.483 194.871 416.368C193.57 417.253 191.955 417.696 190.029 417.696ZM192.138 414.103C193.491 414.103 194.741 413.634 195.887 412.697C197.032 411.707 197.97 410.406 198.699 408.791C199.428 407.177 199.792 405.355 199.792 403.324V397.622C199.792 396.633 199.245 396.346 198.152 396.763C194.976 397.909 192.502 399.497 190.732 401.527C189.013 403.506 188.154 405.902 188.154 408.713C188.154 412.306 189.482 414.103 192.138 414.103ZM213.415 416.993C212.79 416.993 212.478 416.706 212.478 416.134C212.478 415.613 212.764 415.3 213.337 415.196L214.431 415.04C215.524 414.884 216.331 414.571 216.852 414.103C217.373 413.634 217.633 412.853 217.633 411.76V367.004C217.633 366.067 217.477 365.416 217.164 365.051C216.904 364.687 216.409 364.479 215.68 364.427L213.884 364.192C213.311 364.088 213.025 363.776 213.025 363.255C213.025 362.734 213.311 362.422 213.884 362.318C215.342 362.005 216.592 361.641 217.633 361.224C218.674 360.808 219.534 360.391 220.21 359.974C221.044 359.454 221.668 359.193 222.085 359.193C222.658 359.193 222.944 359.61 222.944 360.443V411.76C222.944 412.853 223.1 413.634 223.413 414.103C223.777 414.519 224.506 414.806 225.6 414.962L227.396 415.196C227.969 415.3 228.256 415.613 228.256 416.134C228.256 416.706 227.943 416.993 227.318 416.993H213.415ZM244.943 416.993C244.162 416.993 243.771 416.706 243.771 416.134C243.771 415.665 244.11 415.352 244.787 415.196L246.583 414.884C247.677 414.676 248.38 414.389 248.692 414.025C249.057 413.66 249.239 412.931 249.239 411.838V365.911C249.239 364.817 249.057 364.088 248.692 363.724C248.38 363.359 247.677 363.073 246.583 362.864L244.787 362.552C244.11 362.396 243.771 362.083 243.771 361.615C243.771 361.042 244.162 360.755 244.943 360.755H259.08C259.862 360.755 260.252 361.042 260.252 361.615C260.252 362.083 259.914 362.396 259.237 362.552L257.44 362.864C256.347 363.073 255.618 363.359 255.253 363.724C254.941 364.088 254.785 364.817 254.785 365.911V411.838C254.785 412.931 254.941 413.66 255.253 414.025C255.618 414.389 256.347 414.676 257.44 414.884L259.237 415.196C259.914 415.352 260.252 415.665 260.252 416.134C260.252 416.706 259.862 416.993 259.08 416.993H244.943ZM264.081 416.993C263.3 416.993 262.91 416.706 262.91 416.134C262.91 415.665 263.248 415.352 263.925 415.196L264.862 415.04C265.956 414.832 266.659 414.519 266.971 414.103C267.336 413.634 267.518 412.853 267.518 411.76V385.516C267.518 384.578 267.362 383.953 267.049 383.641C266.789 383.276 266.294 383.042 265.565 382.938L263.925 382.704C263.248 382.652 262.91 382.365 262.91 381.844C262.91 381.428 263.326 381.141 264.159 380.985C265.773 380.725 266.997 380.308 267.83 379.736C268.715 379.163 269.627 378.46 270.564 377.627C271.033 377.158 271.423 376.924 271.736 376.924C272.204 376.924 272.439 377.236 272.439 377.861V381.376C272.439 381.844 272.595 382.157 272.907 382.313C273.272 382.417 273.662 382.261 274.079 381.844C276.162 379.866 277.984 378.512 279.546 377.783C281.161 377.054 282.853 376.689 284.623 376.689C286.967 376.689 288.841 377.523 290.247 379.189C291.653 380.803 292.356 383.198 292.356 386.375V411.76C292.356 412.853 292.512 413.634 292.825 414.103C293.189 414.519 293.918 414.806 295.012 414.962L296.73 415.196C297.303 415.3 297.589 415.613 297.589 416.134C297.589 416.706 297.277 416.993 296.652 416.993H283.53C282.801 416.993 282.436 416.706 282.436 416.134C282.436 415.613 282.723 415.3 283.296 415.196L284.389 415.04C285.483 414.884 286.185 414.571 286.498 414.103C286.862 413.634 287.045 412.853 287.045 411.76V387.234C287.045 384.682 286.576 382.886 285.639 381.844C284.701 380.803 283.374 380.282 281.655 380.282C279.989 380.282 278.479 380.777 277.125 381.766C275.823 382.704 274.782 383.979 274.001 385.594C273.22 387.156 272.829 388.9 272.829 390.827V411.76C272.829 412.853 272.985 413.634 273.298 414.103C273.662 414.571 274.391 414.858 275.485 414.962L277.594 415.196C278.166 415.3 278.453 415.587 278.453 416.055C278.453 416.68 278.062 416.993 277.281 416.993H264.081ZM309.909 417.696C308.086 417.696 306.576 417.071 305.379 415.821C304.233 414.519 303.66 412.41 303.66 409.494V380.282C303.66 379.657 303.348 379.345 302.723 379.345H300.458C299.625 379.345 299.208 379.033 299.208 378.408C299.208 377.991 299.442 377.627 299.911 377.314C301.629 376.117 303.009 374.841 304.051 373.487C305.092 372.081 306.003 370.18 306.784 367.785C307.149 366.692 307.592 366.145 308.112 366.145C308.685 366.145 308.971 366.561 308.971 367.395V376.065C308.971 376.794 309.336 377.158 310.065 377.158H315.142C315.975 377.158 316.392 377.523 316.392 378.252C316.392 378.981 315.975 379.345 315.142 379.345H310.065C309.336 379.345 308.971 379.71 308.971 380.439V409.573C308.971 410.718 309.154 411.629 309.518 412.306C309.883 412.931 310.56 413.244 311.549 413.244C312.643 413.244 313.528 412.697 314.205 411.603C314.934 410.51 315.402 408.739 315.611 406.292C315.715 405.563 316.053 405.199 316.626 405.199C317.251 405.199 317.563 405.589 317.563 406.37C317.407 410.38 316.574 413.27 315.064 415.04C313.606 416.81 311.887 417.696 309.909 417.696ZM333.637 417.696C331.137 417.696 328.898 416.863 326.92 415.196C324.941 413.53 323.353 411.187 322.155 408.167C321.01 405.094 320.437 401.554 320.437 397.544C320.437 393.43 321.036 389.811 322.233 386.687C323.431 383.563 325.071 381.115 327.154 379.345C329.237 377.575 331.554 376.689 334.106 376.689C337.178 376.689 339.651 377.965 341.526 380.517C343.452 383.016 344.416 387.104 344.416 392.779C344.416 394.498 343.765 395.357 342.463 395.357H327.623C326.581 395.357 326.06 395.956 326.06 397.153C326.06 402.673 326.868 406.813 328.482 409.573C330.096 412.332 332.153 413.712 334.652 413.712C336.631 413.712 338.245 413.009 339.495 411.603C340.745 410.197 341.76 407.828 342.541 404.496C342.697 403.923 343.036 403.636 343.557 403.636C344.181 403.636 344.416 404.157 344.259 405.199C343.426 409.833 342.099 413.087 340.276 414.962C338.454 416.784 336.24 417.696 333.637 417.696ZM327.388 393.404H335.277C337.777 393.404 339.026 392.103 339.026 389.499C339.026 386.114 338.61 383.459 337.777 381.532C336.943 379.605 335.694 378.642 334.027 378.642C331.997 378.642 330.278 379.814 328.872 382.157C327.518 384.5 326.633 387.833 326.217 392.155C326.113 392.988 326.503 393.404 327.388 393.404ZM347.967 416.993C347.342 416.993 347.03 416.706 347.03 416.134C347.03 415.613 347.316 415.3 347.889 415.196L348.983 415.04C350.076 414.884 350.883 414.571 351.404 414.103C351.925 413.634 352.185 412.853 352.185 411.76V367.004C352.185 366.067 352.029 365.416 351.716 365.051C351.456 364.687 350.961 364.479 350.232 364.427L348.436 364.192C347.863 364.088 347.577 363.776 347.577 363.255C347.577 362.734 347.863 362.422 348.436 362.318C349.894 362.005 351.144 361.641 352.185 361.224C353.226 360.808 354.086 360.391 354.762 359.974C355.596 359.454 356.22 359.193 356.637 359.193C357.21 359.193 357.496 359.61 357.496 360.443V411.76C357.496 412.853 357.652 413.634 357.965 414.103C358.329 414.519 359.058 414.806 360.152 414.962L361.948 415.196C362.521 415.3 362.808 415.613 362.808 416.134C362.808 416.706 362.495 416.993 361.87 416.993H347.967ZM365.129 416.993C364.505 416.993 364.192 416.706 364.192 416.134C364.192 415.613 364.478 415.3 365.051 415.196L366.145 415.04C367.238 414.884 368.045 414.571 368.566 414.103C369.087 413.634 369.347 412.853 369.347 411.76V367.004C369.347 366.067 369.191 365.416 368.879 365.051C368.618 364.687 368.123 364.479 367.394 364.427L365.598 364.192C365.025 364.088 364.739 363.776 364.739 363.255C364.739 362.734 365.025 362.422 365.598 362.318C367.056 362.005 368.306 361.641 369.347 361.224C370.389 360.808 371.248 360.391 371.925 359.974C372.758 359.454 373.383 359.193 373.799 359.193C374.372 359.193 374.658 359.61 374.658 360.443V411.76C374.658 412.853 374.815 413.634 375.127 414.103C375.492 414.519 376.221 414.806 377.314 414.962L379.111 415.196C379.683 415.3 379.97 415.613 379.97 416.134C379.97 416.706 379.657 416.993 379.032 416.993H365.129ZM389.634 369.738C388.54 369.738 387.603 369.347 386.822 368.566C386.093 367.785 385.728 366.796 385.728 365.598C385.728 364.4 386.093 363.437 386.822 362.708C387.603 361.927 388.54 361.537 389.634 361.537C390.727 361.537 391.638 361.927 392.367 362.708C393.096 363.437 393.461 364.4 393.461 365.598C393.461 366.796 393.096 367.785 392.367 368.566C391.638 369.347 390.727 369.738 389.634 369.738ZM383.073 416.993C382.292 416.993 381.901 416.706 381.901 416.134C381.901 415.665 382.24 415.352 382.916 415.196L383.854 415.04C385.156 414.832 385.989 414.519 386.353 414.103C386.718 413.634 386.9 412.853 386.9 411.76V385.516C386.9 384.578 386.744 383.953 386.431 383.641C386.171 383.276 385.676 383.042 384.947 382.938L383.307 382.704C382.63 382.652 382.292 382.365 382.292 381.844C382.292 381.428 382.708 381.141 383.541 380.985C385.156 380.725 386.457 380.308 387.447 379.736C388.436 379.163 389.399 378.46 390.337 377.627C390.805 377.158 391.196 376.924 391.508 376.924C391.977 376.924 392.211 377.236 392.211 377.861V411.76C392.211 412.853 392.367 413.634 392.68 414.103C392.992 414.571 393.591 414.858 394.476 414.962L396.429 415.196C397.002 415.3 397.288 415.587 397.288 416.055C397.288 416.68 396.898 416.993 396.117 416.993H383.073ZM412.024 433.786C408.066 433.786 404.942 432.979 402.651 431.364C400.36 429.802 399.214 427.902 399.214 425.663C399.214 424.725 399.344 423.866 399.605 423.085C399.865 422.356 400.412 421.497 401.245 420.508C402.13 419.518 403.458 418.242 405.228 416.68C405.853 416.108 406.166 415.587 406.166 415.118C406.166 414.597 405.853 414.207 405.228 413.947C403.354 413.165 402.234 412.176 401.87 410.978C401.505 409.729 401.948 408.583 403.198 407.542L408.821 402.699C409.446 402.178 409.42 401.736 408.743 401.371C406.608 400.33 404.916 398.716 403.666 396.529C402.416 394.342 401.792 391.998 401.792 389.499C401.792 387.104 402.312 384.943 403.354 383.016C404.395 381.089 405.801 379.553 407.572 378.408C409.342 377.262 411.321 376.689 413.508 376.689C414.757 376.689 415.955 376.898 417.101 377.314C417.83 377.575 418.272 377.34 418.428 376.611C418.897 374.633 419.756 373.096 421.006 372.003C422.308 370.857 423.584 370.285 424.833 370.285C426.031 370.285 426.994 370.649 427.723 371.378C428.504 372.055 428.895 372.914 428.895 373.956C428.895 374.841 428.634 375.544 428.114 376.065C427.593 376.585 426.942 376.846 426.161 376.846C425.484 376.846 424.989 376.715 424.677 376.455C424.365 376.195 424.078 375.934 423.818 375.674C423.557 375.414 423.141 375.283 422.568 375.283C421.318 375.283 420.537 375.96 420.225 377.314C420.069 377.835 420.069 378.278 420.225 378.642C420.433 379.007 420.72 379.371 421.084 379.736C422.334 380.933 423.297 382.391 423.974 384.11C424.703 385.828 425.068 387.729 425.068 389.811C425.068 392.311 424.547 394.55 423.505 396.529C422.516 398.507 421.136 400.069 419.366 401.215C417.647 402.361 415.695 402.933 413.508 402.933C412.57 402.933 411.763 403.142 411.086 403.558C410.409 403.923 409.732 404.47 409.056 405.199L407.728 406.683C407.051 407.516 406.843 408.323 407.103 409.104C407.415 409.833 408.144 410.197 409.29 410.197H416.007C419.756 410.197 422.724 411.135 424.911 413.009C427.098 414.832 428.192 417.357 428.192 420.586C428.192 423.137 427.463 425.402 426.005 427.381C424.547 429.36 422.594 430.922 420.147 432.067C417.752 433.213 415.044 433.786 412.024 433.786ZM413.43 400.981C415.304 400.981 416.788 399.965 417.882 397.935C418.975 395.904 419.522 393.144 419.522 389.655C419.522 386.271 418.949 383.563 417.804 381.532C416.71 379.449 415.252 378.408 413.43 378.408C411.607 378.408 410.123 379.449 408.977 381.532C407.884 383.563 407.337 386.271 407.337 389.655C407.337 393.144 407.884 395.904 408.977 397.935C410.071 399.965 411.555 400.981 413.43 400.981ZM412.961 432.067C414.836 432.067 416.554 431.651 418.116 430.818C419.678 429.985 420.902 428.813 421.787 427.303C422.724 425.845 423.193 424.179 423.193 422.304C423.193 419.961 422.49 418.164 421.084 416.915C419.73 415.613 417.804 414.962 415.304 414.962H413.508C411.893 414.962 410.67 415.118 409.837 415.431C409.056 415.743 408.301 416.29 407.572 417.071C405.957 418.789 404.942 420.169 404.525 421.211C404.109 422.252 403.9 423.319 403.9 424.413C403.9 426.704 404.682 428.553 406.244 429.959C407.858 431.364 410.097 432.067 412.961 432.067ZM444.543 417.696C442.044 417.696 439.805 416.863 437.826 415.196C435.847 413.53 434.259 411.187 433.061 408.167C431.916 405.094 431.343 401.554 431.343 397.544C431.343 393.43 431.942 389.811 433.139 386.687C434.337 383.563 435.977 381.115 438.06 379.345C440.143 377.575 442.46 376.689 445.012 376.689C448.084 376.689 450.557 377.965 452.432 380.517C454.359 383.016 455.322 387.104 455.322 392.779C455.322 394.498 454.671 395.357 453.369 395.357H438.529C437.487 395.357 436.967 395.956 436.967 397.153C436.967 402.673 437.774 406.813 439.388 409.573C441.002 412.332 443.059 413.712 445.559 413.712C447.537 413.712 449.151 413.009 450.401 411.603C451.651 410.197 452.666 407.828 453.447 404.496C453.604 403.923 453.942 403.636 454.463 403.636C455.088 403.636 455.322 404.157 455.166 405.199C454.333 409.833 453.005 413.087 451.182 414.962C449.36 416.784 447.147 417.696 444.543 417.696ZM438.295 393.404H446.183C448.683 393.404 449.933 392.103 449.933 389.499C449.933 386.114 449.516 383.459 448.683 381.532C447.85 379.605 446.6 378.642 444.934 378.642C442.903 378.642 441.185 379.814 439.779 382.157C438.425 384.5 437.54 387.833 437.123 392.155C437.019 392.988 437.409 393.404 438.295 393.404ZM459.654 416.993C458.873 416.993 458.483 416.706 458.483 416.134C458.483 415.665 458.821 415.352 459.498 415.196L460.436 415.04C461.529 414.832 462.232 414.519 462.544 414.103C462.909 413.634 463.091 412.853 463.091 411.76V385.516C463.091 384.578 462.935 383.953 462.623 383.641C462.362 383.276 461.867 383.042 461.138 382.938L459.498 382.704C458.821 382.652 458.483 382.365 458.483 381.844C458.483 381.428 458.899 381.141 459.733 380.985C461.347 380.725 462.57 380.308 463.404 379.736C464.289 379.163 465.2 378.46 466.137 377.627C466.606 377.158 466.997 376.924 467.309 376.924C467.778 376.924 468.012 377.236 468.012 377.861V381.376C468.012 381.844 468.168 382.157 468.481 382.313C468.845 382.417 469.236 382.261 469.652 381.844C471.735 379.866 473.558 378.512 475.12 377.783C476.734 377.054 478.426 376.689 480.197 376.689C482.54 376.689 484.414 377.523 485.82 379.189C487.226 380.803 487.929 383.198 487.929 386.375V411.76C487.929 412.853 488.085 413.634 488.398 414.103C488.762 414.519 489.491 414.806 490.585 414.962L492.303 415.196C492.876 415.3 493.162 415.613 493.162 416.134C493.162 416.706 492.85 416.993 492.225 416.993H479.103C478.374 416.993 478.01 416.706 478.01 416.134C478.01 415.613 478.296 415.3 478.869 415.196L479.962 415.04C481.056 414.884 481.759 414.571 482.071 414.103C482.436 413.634 482.618 412.853 482.618 411.76V387.234C482.618 384.682 482.149 382.886 481.212 381.844C480.275 380.803 478.947 380.282 477.229 380.282C475.562 380.282 474.052 380.777 472.698 381.766C471.397 382.704 470.355 383.979 469.574 385.594C468.793 387.156 468.402 388.9 468.402 390.827V411.76C468.402 412.853 468.559 413.634 468.871 414.103C469.236 414.571 469.965 414.858 471.058 414.962L473.167 415.196C473.74 415.3 474.026 415.587 474.026 416.055C474.026 416.68 473.636 416.993 472.855 416.993H459.654ZM508.06 417.696C505.768 417.696 503.686 416.941 501.811 415.431C499.988 413.868 498.53 411.655 497.437 408.791C496.343 405.928 495.797 402.517 495.797 398.559C495.797 394.133 496.448 390.28 497.749 387C499.103 383.719 500.926 381.194 503.217 379.423C505.508 377.601 508.06 376.689 510.871 376.689C513.267 376.689 515.141 377.158 516.495 378.095C517.016 378.46 517.276 379.033 517.276 379.814L517.432 389.343C517.432 390.124 517.12 390.514 516.495 390.514C515.922 390.514 515.558 390.176 515.402 389.499C514.673 386.635 513.97 384.422 513.293 382.86C512.616 381.298 511.913 380.23 511.184 379.657C510.455 379.033 509.648 378.72 508.763 378.72C507.721 378.72 506.628 379.319 505.482 380.517C504.389 381.714 503.451 383.667 502.67 386.375C501.941 389.03 501.577 392.545 501.577 396.919C501.577 402.491 502.28 406.683 503.686 409.494C505.144 412.306 507.018 413.712 509.309 413.712C511.132 413.712 512.642 412.957 513.84 411.447C515.089 409.937 516.157 407.203 517.042 403.246C517.198 402.673 517.511 402.387 517.979 402.387C518.604 402.387 518.838 402.907 518.682 403.949C518.109 407.594 517.302 410.432 516.261 412.463C515.271 414.441 514.074 415.821 512.668 416.602C511.314 417.331 509.778 417.696 508.06 417.696ZM535.465 417.696C532.965 417.696 530.726 416.863 528.748 415.196C526.769 413.53 525.181 411.187 523.983 408.167C522.838 405.094 522.265 401.554 522.265 397.544C522.265 393.43 522.864 389.811 524.061 386.687C525.259 383.563 526.899 381.115 528.982 379.345C531.065 377.575 533.382 376.689 535.934 376.689C539.006 376.689 541.479 377.965 543.354 380.517C545.28 383.016 546.244 387.104 546.244 392.779C546.244 394.498 545.593 395.357 544.291 395.357H529.451C528.409 395.357 527.888 395.956 527.888 397.153C527.888 402.673 528.696 406.813 530.31 409.573C531.924 412.332 533.981 413.712 536.48 413.712C538.459 413.712 540.073 413.009 541.323 411.603C542.573 410.197 543.588 407.828 544.369 404.496C544.525 403.923 544.864 403.636 545.384 403.636C546.009 403.636 546.244 404.157 546.087 405.199C545.254 409.833 543.926 413.087 542.104 414.962C540.281 416.784 538.068 417.696 535.465 417.696ZM529.216 393.404H537.105C539.605 393.404 540.854 392.103 540.854 389.499C540.854 386.114 540.438 383.459 539.605 381.532C538.771 379.605 537.522 378.642 535.855 378.642C533.825 378.642 532.106 379.814 530.7 382.157C529.346 384.5 528.461 387.833 528.045 392.155C527.941 392.988 528.331 393.404 529.216 393.404ZM570.409 369.738C569.316 369.738 568.379 369.347 567.597 368.566C566.868 367.785 566.504 366.796 566.504 365.598C566.504 364.4 566.868 363.437 567.597 362.708C568.379 361.927 569.316 361.537 570.409 361.537C571.503 361.537 572.414 361.927 573.143 362.708C573.872 363.437 574.237 364.4 574.237 365.598C574.237 366.796 573.872 367.785 573.143 368.566C572.414 369.347 571.503 369.738 570.409 369.738ZM563.848 416.993C563.067 416.993 562.677 416.706 562.677 416.134C562.677 415.665 563.015 415.352 563.692 415.196L564.629 415.04C565.931 414.832 566.764 414.519 567.129 414.103C567.493 413.634 567.676 412.853 567.676 411.76V385.516C567.676 384.578 567.519 383.953 567.207 383.641C566.947 383.276 566.452 383.042 565.723 382.938L564.083 382.704C563.406 382.652 563.067 382.365 563.067 381.844C563.067 381.428 563.484 381.141 564.317 380.985C565.931 380.725 567.233 380.308 568.222 379.736C569.212 379.163 570.175 378.46 571.112 377.627C571.581 377.158 571.972 376.924 572.284 376.924C572.753 376.924 572.987 377.236 572.987 377.861V411.76C572.987 412.853 573.143 413.634 573.456 414.103C573.768 414.571 574.367 414.858 575.252 414.962L577.205 415.196C577.777 415.3 578.064 415.587 578.064 416.055C578.064 416.68 577.673 416.993 576.892 416.993H563.848ZM589.128 417.696C587.931 417.696 586.655 417.539 585.301 417.227C583.947 416.967 582.854 416.628 582.02 416.212C581.552 415.951 581.318 415.509 581.318 414.884L581.083 406.136C581.083 405.251 581.422 404.808 582.099 404.808C582.671 404.808 583.062 405.225 583.27 406.058C584.155 409.755 585.223 412.28 586.473 413.634C587.774 414.988 589.337 415.665 591.159 415.665C592.669 415.665 593.919 415.092 594.908 413.947C595.898 412.749 596.392 411.109 596.392 409.026C596.392 406.943 595.819 405.094 594.674 403.48C593.528 401.866 591.602 400.096 588.894 398.169C586.186 396.346 584.207 394.524 582.958 392.701C581.708 390.827 581.083 388.796 581.083 386.609C581.083 383.641 582.125 381.246 584.207 379.423C586.29 377.601 589.05 376.689 592.487 376.689C593.528 376.689 594.544 376.82 595.533 377.08C596.522 377.288 597.408 377.653 598.189 378.173C598.657 378.486 598.892 378.902 598.892 379.423L599.048 388.015C599.048 388.796 598.735 389.187 598.111 389.187C597.746 389.187 597.486 389.082 597.329 388.874C597.173 388.614 597.043 388.301 596.939 387.937C595.898 384.552 594.856 382.209 593.815 380.907C592.773 379.553 591.497 378.876 589.987 378.876C588.634 378.876 587.514 379.345 586.629 380.282C585.744 381.22 585.301 382.391 585.301 383.797C585.301 385.62 585.848 387.208 586.941 388.562C588.035 389.916 590.013 391.582 592.877 393.561C595.481 395.435 597.434 397.466 598.735 399.653C600.089 401.788 600.766 404.131 600.766 406.683C600.766 410.015 599.699 412.697 597.564 414.728C595.429 416.706 592.617 417.696 589.128 417.696ZM622.835 411.76V381.22C622.835 379.97 622.21 379.345 620.96 379.345H619.164C618.539 379.345 618.226 379.085 618.226 378.564C618.226 378.043 618.539 377.757 619.164 377.705C621.611 377.444 622.835 376.377 622.835 374.502V374.034C622.835 371.326 623.225 368.801 624.006 366.457C624.839 364.114 626.011 362.213 627.521 360.755C629.083 359.297 630.984 358.568 633.223 358.568C635.306 358.568 637.05 359.167 638.456 360.365C639.862 361.563 640.565 362.995 640.565 364.661C640.565 365.65 640.305 366.405 639.784 366.926C639.315 367.395 638.664 367.629 637.831 367.629C636.79 367.629 636.035 367.29 635.566 366.614C635.149 365.937 634.811 365.182 634.551 364.348C634.29 363.463 633.952 362.682 633.535 362.005C633.171 361.328 632.494 360.99 631.504 360.99C630.463 360.99 629.63 361.589 629.005 362.786C628.432 363.932 628.146 366.119 628.146 369.347V376.221C628.146 376.846 628.458 377.158 629.083 377.158H635.8C636.581 377.158 636.972 377.523 636.972 378.252C636.972 378.981 636.581 379.345 635.8 379.345H629.083C628.458 379.345 628.146 379.657 628.146 380.282V411.76C628.146 412.853 628.302 413.608 628.614 414.025C628.979 414.441 629.708 414.702 630.801 414.806L634.941 415.196C635.514 415.3 635.8 415.587 635.8 416.055C635.8 416.68 635.41 416.993 634.629 416.993H618.382C617.601 416.993 617.211 416.706 617.211 416.134C617.211 415.561 617.549 415.248 618.226 415.196L620.179 415.04C621.272 414.936 621.975 414.65 622.288 414.181C622.652 413.66 622.835 412.853 622.835 411.76ZM652.188 417.696C649.533 417.696 647.137 416.81 645.002 415.04C642.92 413.218 641.253 410.744 640.004 407.62C638.754 404.496 638.129 401.007 638.129 397.153C638.129 393.3 638.754 389.837 640.004 386.765C641.253 383.693 642.946 381.246 645.081 379.423C647.215 377.601 649.585 376.689 652.188 376.689C654.844 376.689 657.213 377.601 659.296 379.423C661.431 381.246 663.123 383.693 664.373 386.765C665.623 389.837 666.248 393.3 666.248 397.153C666.248 401.007 665.623 404.496 664.373 407.62C663.175 410.744 661.509 413.218 659.374 415.04C657.239 416.81 654.844 417.696 652.188 417.696ZM652.188 415.743C657.604 415.743 660.311 409.547 660.311 397.153C660.311 384.813 657.604 378.642 652.188 378.642C646.773 378.642 644.065 384.813 644.065 397.153C644.065 409.547 646.773 415.743 652.188 415.743ZM680.245 382.157C682.38 378.512 684.957 376.689 687.977 376.689C689.696 376.689 690.971 377.21 691.805 378.252C692.638 379.241 693.054 380.36 693.054 381.61C693.054 382.599 692.794 383.407 692.273 384.031C691.805 384.656 691.049 384.969 690.008 384.969C689.175 384.969 688.55 384.787 688.133 384.422C687.769 384.005 687.457 383.537 687.196 383.016C686.988 382.495 686.728 382.053 686.415 381.688C686.103 381.272 685.582 381.063 684.853 381.063C683.916 381.063 683.03 381.636 682.197 382.782C681.364 383.875 680.661 385.359 680.088 387.234C679.568 389.108 679.307 391.243 679.307 393.639V411.76C679.307 412.853 679.464 413.634 679.776 414.103C680.141 414.571 680.87 414.858 681.963 414.962L684.072 415.196C684.645 415.3 684.931 415.587 684.931 416.055C684.931 416.68 684.541 416.993 683.759 416.993H670.559C669.778 416.993 669.388 416.706 669.388 416.134C669.388 415.665 669.726 415.352 670.403 415.196L671.34 415.04C672.434 414.832 673.137 414.519 673.449 414.103C673.814 413.634 673.996 412.853 673.996 411.76V385.516C673.996 384.578 673.84 383.953 673.527 383.641C673.267 383.276 672.772 383.042 672.043 382.938L670.403 382.704C669.726 382.652 669.388 382.365 669.388 381.844C669.388 381.428 669.804 381.141 670.637 380.985C672.252 380.725 673.475 380.308 674.308 379.736C675.194 379.163 676.105 378.46 677.042 377.627C677.511 377.158 677.901 376.924 678.214 376.924C678.683 376.924 678.917 377.236 678.917 377.861V382.079C678.917 382.443 679.073 382.678 679.385 382.782C679.698 382.834 679.984 382.626 680.245 382.157ZM715.727 417.696C713.54 417.696 711.744 417.019 710.338 415.665C708.932 414.259 708.229 412.41 708.229 410.119C708.229 407.88 708.932 405.771 710.338 403.793C711.744 401.762 713.67 399.939 716.118 398.325C718.565 396.711 721.351 395.409 724.475 394.42C725.152 394.211 725.491 393.769 725.491 393.092V385.984C725.491 383.485 725.1 381.714 724.319 380.673C723.538 379.579 722.471 379.033 721.117 379.033C719.815 379.033 718.617 379.631 717.524 380.829C716.482 381.975 715.727 383.927 715.259 386.687C714.998 388.353 714.426 389.577 713.54 390.358C712.707 391.087 711.848 391.452 710.963 391.452C709.505 391.452 708.776 390.723 708.776 389.265C708.776 387.755 709.192 386.271 710.025 384.813C710.911 383.302 712.056 381.949 713.462 380.751C714.868 379.501 716.404 378.512 718.071 377.783C719.737 377.054 721.403 376.689 723.069 376.689C728.224 376.689 730.802 379.683 730.802 385.672V409.573C730.802 411.76 731.349 412.853 732.442 412.853C733.119 412.853 733.744 412.41 734.317 411.525C734.89 410.588 735.176 409.026 735.176 406.839C735.176 406.006 735.514 405.589 736.191 405.589C736.816 405.589 737.129 406.032 737.129 406.917C737.129 410.718 736.452 413.478 735.098 415.196C733.796 416.863 732.312 417.696 730.646 417.696C729.396 417.696 728.407 417.201 727.678 416.212C726.949 415.17 726.454 413.947 726.194 412.541C726.142 412.02 725.907 411.76 725.491 411.76C725.126 411.707 724.762 411.942 724.397 412.463C723.147 414.181 721.872 415.483 720.57 416.368C719.268 417.253 717.654 417.696 715.727 417.696ZM717.836 414.103C719.19 414.103 720.44 413.634 721.585 412.697C722.731 411.707 723.668 410.406 724.397 408.791C725.126 407.177 725.491 405.355 725.491 403.324V397.622C725.491 396.633 724.944 396.346 723.85 396.763C720.674 397.909 718.201 399.497 716.43 401.527C714.712 403.506 713.853 405.902 713.853 408.713C713.853 412.306 715.181 414.103 717.836 414.103ZM739.114 416.993C738.489 416.993 738.176 416.706 738.176 416.134C738.176 415.613 738.463 415.3 739.036 415.196L740.129 415.04C741.223 414.884 742.03 414.571 742.55 414.103C743.071 413.634 743.332 412.853 743.332 411.76V367.004C743.332 366.067 743.175 365.416 742.863 365.051C742.603 364.687 742.108 364.479 741.379 364.427L739.582 364.192C739.01 364.088 738.723 363.776 738.723 363.255C738.723 362.734 739.01 362.422 739.582 362.318C741.04 362.005 742.29 361.641 743.332 361.224C744.373 360.808 745.232 360.391 745.909 359.974C746.742 359.454 747.367 359.193 747.784 359.193C748.356 359.193 748.643 359.61 748.643 360.443V411.76C748.643 412.853 748.799 413.634 749.111 414.103C749.476 414.519 750.205 414.806 751.298 414.962L753.095 415.196C753.668 415.3 753.954 415.613 753.954 416.134C753.954 416.706 753.642 416.993 753.017 416.993H739.114ZM756.276 416.993C755.651 416.993 755.339 416.706 755.339 416.134C755.339 415.613 755.625 415.3 756.198 415.196L757.291 415.04C758.385 414.884 759.192 414.571 759.713 414.103C760.233 413.634 760.494 412.853 760.494 411.76V367.004C760.494 366.067 760.338 365.416 760.025 365.051C759.765 364.687 759.27 364.479 758.541 364.427L756.745 364.192C756.172 364.088 755.885 363.776 755.885 363.255C755.885 362.734 756.172 362.422 756.745 362.318C758.203 362.005 759.452 361.641 760.494 361.224C761.535 360.808 762.394 360.391 763.071 359.974C763.904 359.454 764.529 359.193 764.946 359.193C765.519 359.193 765.805 359.61 765.805 360.443V411.76C765.805 412.853 765.961 413.634 766.274 414.103C766.638 414.519 767.367 414.806 768.461 414.962L770.257 415.196C770.83 415.3 771.116 415.613 771.116 416.134C771.116 416.706 770.804 416.993 770.179 416.993H756.276Z" fill="black"/>
<path d="M306.894 136.993H180.498L243.696 -8.8977e-06L306.894 136.993ZM191.673 129.864H295.719L243.696 16.9555L191.673 129.864ZM342.969 36.8011V2.89013H429.674V36.8011H389.79V103.082H429.674V136.993H342.969V103.082H382.853V36.8011H342.969ZM474.805 2.69746H482.512L529.332 85.5482L575.96 2.69746H583.089V136.8H474.805V2.69746ZM481.934 129.864H575.96V17.1482L532.608 93.4479H525.864L481.934 15.9921V129.864Z" fill="black"/>
<line x1="180.406" y1="176.993" x2="584.406" y2="176.993" stroke="black" stroke-width="6"/>
</svg>
