<svg width="2146" height="597" viewBox="0 0 2146 597" fill="none" xmlns="http://www.w3.org/2000/svg">
<path d="M81.8088 592.819C65.7392 592.819 51.374 588.44 38.7131 579.682C26.5392 570.923 17.0435 558.516 10.2261 542.459C3.4087 526.403 0 507.427 0 485.531C0 463.149 3.4087 439.064 10.2261 413.276C17.0435 387.488 27.2696 362.186 40.9044 337.372C54.5392 312.557 71.0957 289.931 90.574 269.496C110.052 249.06 132.452 232.76 157.774 220.596C183.583 207.945 211.826 201.62 242.505 201.62C261.009 201.62 280.974 205.026 302.4 211.837C323.826 218.163 343.061 227.164 360.105 238.842L346.957 289.202C323.096 276.551 301.913 268.522 283.409 265.117C264.905 261.224 247.861 259.278 232.278 259.278C211.339 259.278 192.105 264.143 174.574 273.875C157.531 283.606 142.191 296.5 128.557 312.557C115.409 328.127 104.209 345.643 94.9566 365.106C85.7044 384.082 78.6435 403.058 73.774 422.034C68.9044 441.01 66.4696 458.283 66.4696 473.853C66.4696 486.018 67.9305 496.722 70.8522 505.967C73.774 515.212 77.9131 522.267 83.2696 527.132C89.1131 531.998 95.687 534.431 102.991 534.431C121.009 534.431 141.461 524.7 164.348 505.237C187.235 485.288 211.583 456.094 237.391 417.655C263.687 379.216 290.47 332.506 317.739 277.524L344.765 304.528C313.113 369.728 281.705 423.737 250.539 466.555C219.861 508.886 190.4 540.513 162.157 561.435C133.913 582.358 107.131 592.819 81.8088 592.819ZM306.783 592.819C284.87 592.819 268.557 588.683 257.844 580.411C247.618 572.626 241.044 562.652 238.122 550.488C235.687 537.837 235.687 524.7 238.122 511.076C240.557 496.965 243.965 484.071 248.348 472.394L330.157 227.894C333.565 218.163 337.461 211.837 341.844 208.918C346.713 205.999 353.774 204.539 363.026 204.539C378.122 204.539 387.618 206.972 391.513 211.837C395.896 216.217 396.383 223.272 392.974 233.003L312.626 471.664C304.348 496.965 300.452 514.482 300.939 524.213C301.913 533.458 308 538.08 319.2 538.08C326.018 538.08 331.131 541 334.539 546.838C337.948 552.191 339.165 558.516 338.192 565.814C337.705 572.626 334.783 578.709 329.426 584.061C324.557 589.9 317.009 592.819 306.783 592.819Z" fill="#2B2828"/>
<path d="M306.834 592.819C300.017 592.819 294.904 589.9 291.495 584.061C288.086 578.709 286.869 572.626 287.843 565.814C288.33 558.516 291.252 552.191 296.608 546.838C301.965 541 309.756 538.08 319.982 538.08C331.669 538.08 345.06 532.241 360.156 520.564C374.765 508.886 392.052 490.64 412.017 465.825C431.982 440.524 455.6 407.68 482.869 367.295C510.139 326.424 542.034 277.037 578.556 219.136C582.939 212.324 588.539 209.405 595.356 210.378C602.661 211.351 608.504 214.514 612.887 219.866C617.269 225.218 617.513 231.057 613.617 237.382C572.226 307.448 536.434 365.592 506.243 411.816C476.539 457.553 450.486 493.803 428.086 520.564C405.686 546.838 384.991 565.571 365.999 576.762C346.521 587.467 326.799 592.819 306.834 592.819Z" fill="#2B2828"/>
<path d="M534 591.359C506.73 591.359 489.687 580.655 482.869 559.246C476.052 537.35 479.46 505.724 493.095 464.365L570.521 227.894C573.93 218.163 577.826 211.837 582.208 208.918C587.078 205.999 594.139 204.539 603.391 204.539C618.487 204.539 627.982 206.972 631.878 211.837C636.261 216.217 636.748 223.272 633.339 233.003L544.226 505.237C540.817 515.455 539.6 523.24 540.574 528.592C541.547 533.458 545.2 535.891 551.53 535.891C555.913 535.891 560.295 534.431 564.678 531.512C569.06 528.592 573.93 524.213 579.287 518.374C585.13 512.535 591.947 504.994 599.739 495.749C603.634 490.883 607.53 488.207 611.426 487.721C615.321 486.747 619.947 488.207 625.304 492.1C633.095 496.965 637.721 501.831 639.182 506.697C641.13 511.562 640.643 516.428 637.721 521.294C627.495 537.35 616.782 550.731 605.582 561.435C594.869 571.653 583.426 579.195 571.252 584.061C559.565 588.926 547.147 591.359 534 591.359ZM648.678 92.1422C638.939 92.1422 630.661 88.9795 623.843 82.6541C617.026 76.3288 613.617 67.084 613.617 54.9198C613.617 41.7826 617.756 29.3751 626.034 17.6975C634.8 6.01994 648.191 0.181152 666.208 0.181152C676.435 0.181152 684.956 3.34382 691.774 9.66916C698.591 15.508 702 24.7527 702 37.4035C702 50.5408 697.617 62.9482 688.852 74.6258C680.574 86.3034 667.182 92.1422 648.678 92.1422Z" fill="#2B2828"/>
<path d="M757.527 265L777.129 11.6262H819.237L857.352 176.065L865.338 220.351L873.324 176.065L912.165 11.6262H953.184L973.149 265H941.931L931.041 95.1162L929.226 44.2962L918.699 95.1162L878.769 265H850.455L811.251 95.1162L801.087 43.5702L798.909 95.1162L788.382 265H757.527Z" fill="#2B2828"/>
<path d="M1103.25 269.356C1082.92 269.356 1065.37 265.242 1050.61 257.014C1035.85 248.544 1024.47 236.565 1016.49 221.077C1008.74 205.347 1004.87 186.713 1004.87 165.175C1004.87 143.637 1008.87 125.245 1016.85 109.999C1024.84 94.5112 1036.21 82.6532 1050.97 74.4252C1065.74 65.9552 1083.4 61.7202 1103.97 61.7202C1134.95 61.7202 1158.3 70.1902 1174.03 87.1302C1189.76 104.07 1196.78 127.423 1195.08 157.189H1028.83V133.594L1164.23 134.32C1163.26 119.8 1157.33 108.305 1146.44 99.8352C1135.55 91.1232 1121.4 86.7672 1103.97 86.7672C1082.19 86.7672 1065.25 93.7852 1053.15 107.821C1041.05 121.615 1035 140.975 1035 165.901C1035 181.631 1037.66 195.425 1042.99 207.283C1048.55 218.899 1056.42 227.974 1066.58 234.508C1076.75 240.8 1088.97 243.946 1103.25 243.946C1120.19 243.946 1134.34 239.953 1145.72 231.967C1157.33 223.739 1164.47 212.607 1167.13 198.571H1197.26C1193.63 220.593 1183.47 237.896 1166.77 250.48C1150.07 263.064 1128.9 269.356 1103.25 269.356Z" fill="#2B2828"/>
<path d="M1339.34 269.356C1319.01 269.356 1301.46 265.242 1286.7 257.014C1271.94 248.544 1260.57 236.565 1252.58 221.077C1244.84 205.347 1240.96 186.713 1240.96 165.175C1240.96 143.637 1244.96 125.245 1252.94 109.999C1260.93 94.5112 1272.3 82.6532 1287.06 74.4252C1301.83 65.9552 1319.49 61.7202 1340.06 61.7202C1371.04 61.7202 1394.39 70.1902 1410.12 87.1302C1425.85 104.07 1432.87 127.423 1431.18 157.189H1264.92V133.594L1400.32 134.32C1399.35 119.8 1393.42 108.305 1382.53 99.8352C1371.64 91.1232 1357.49 86.7672 1340.06 86.7672C1318.28 86.7672 1301.34 93.7852 1289.24 107.821C1277.14 121.615 1271.09 140.975 1271.09 165.901C1271.09 181.631 1273.75 195.425 1279.08 207.283C1284.64 218.899 1292.51 227.974 1302.67 234.508C1312.84 240.8 1325.06 243.946 1339.34 243.946C1356.28 243.946 1370.43 239.953 1381.81 231.967C1393.42 223.739 1400.56 212.607 1403.22 198.571H1433.35C1429.72 220.593 1419.56 237.896 1402.86 250.48C1386.16 263.064 1364.99 269.356 1339.34 269.356Z" fill="#2B2828"/>
<path d="M1589.59 265C1577.49 265 1567.32 262.701 1559.09 258.103C1551.11 253.505 1545.06 246.971 1540.94 238.501C1537.07 229.789 1535.14 219.625 1535.14 208.009V26.8722L1564.9 8.72217V208.009C1564.9 213.817 1565.75 219.262 1567.44 224.344C1569.14 229.184 1572.52 233.177 1577.61 236.323C1582.69 239.227 1590.07 240.679 1599.75 240.679H1662.55V265H1589.59ZM1485.4 90.3972V66.0762H1632.06V90.3972H1485.4Z" fill="#2B2828"/>
<path d="M1749.45 66.0762V192.4C1749.45 207.646 1753.8 219.988 1762.52 229.426C1771.47 238.864 1783.21 243.583 1797.73 243.583C1813.94 243.583 1828.34 237.533 1840.92 225.433C1853.51 213.091 1862.7 194.457 1868.51 169.531L1873.96 208.372C1866.7 228.216 1855.81 243.341 1841.29 253.747C1827.01 264.153 1811.04 269.356 1793.37 269.356C1778.37 269.356 1765.3 266.21 1754.17 259.918C1743.28 253.384 1734.69 244.43 1728.39 233.056C1722.34 221.682 1719.32 208.372 1719.32 193.126V66.0762H1749.45ZM1894.65 66.0762V265H1866.33L1864.52 217.084V66.0762H1894.65Z" fill="#2B2828"/>
<path d="M2055.24 61.7202C2073.14 61.7202 2088.87 66.0762 2102.43 74.7882C2115.98 83.5002 2126.5 95.7212 2134.01 111.451C2141.75 126.939 2145.62 144.968 2145.62 165.538C2145.62 185.866 2141.75 203.895 2134.01 219.625C2126.5 235.113 2115.98 247.334 2102.43 256.288C2088.87 265 2073.14 269.356 2055.24 269.356C2040.96 269.356 2027.89 266.331 2016.03 260.281C2004.42 254.231 1995.1 246.124 1988.08 235.96V329.614H1957.95V66.0762H1986.27L1987.35 95.8422C1994.37 85.4362 2003.81 77.2082 2015.67 71.1582C2027.53 64.8662 2040.72 61.7202 2055.24 61.7202ZM2049.43 243.583C2062.74 243.583 2074.23 240.316 2083.91 233.782C2093.83 227.248 2101.58 218.173 2107.14 206.557C2112.71 194.699 2115.49 181.026 2115.49 165.538C2115.49 149.808 2112.71 136.135 2107.14 124.519C2101.58 112.661 2093.83 103.586 2083.91 97.2942C2074.23 90.7602 2062.74 87.4932 2049.43 87.4932C2035.88 87.4932 2023.53 91.2442 2012.4 98.7462C2001.51 106.248 1993.4 116.533 1988.08 129.601V201.112C1993.4 214.18 2001.51 224.586 2012.4 232.33C2023.53 239.832 2035.88 243.583 2049.43 243.583Z" fill="#2B2828"/>
<path d="M842.106 592V338.626H887.481V592H842.106ZM780.396 338.626H949.191V376.741H780.396V338.626ZM780.396 553.885H949.191V592H780.396V553.885Z" fill="#2B2828"/>
<path d="M1117.4 592C1104.58 592 1093.57 589.338 1084.37 584.014C1075.17 578.69 1068.16 571.188 1063.32 561.508C1058.48 551.586 1056.06 540.091 1056.06 527.023V355.324L1099.62 333.544V527.023C1099.62 533.073 1100.46 538.397 1102.16 542.995C1103.85 547.593 1107.12 551.102 1111.96 553.522C1117.04 555.7 1124.3 556.789 1133.74 556.789H1190.73V592H1117.4ZM1011.41 426.835V391.624H1157.7V426.835H1011.41Z" fill="#2B2828"/>
<path d="M1385.07 592L1383.26 549.529V459.505C1383.26 446.921 1379.02 436.999 1370.55 429.739C1362.08 422.479 1350.35 418.849 1335.34 418.849C1321.07 418.849 1309.33 422.116 1300.13 428.65C1291.18 435.184 1286.1 444.138 1284.89 455.512H1242.78C1243.99 441.234 1248.59 429.013 1256.57 418.849C1264.8 408.685 1275.69 400.941 1289.24 395.617C1303.04 390.051 1318.89 387.268 1336.8 387.268C1355.19 387.268 1371.04 390.172 1384.35 395.98C1397.9 401.788 1408.31 410.258 1415.57 421.39C1422.83 432.522 1426.46 446.074 1426.46 462.046V592H1385.07ZM1315.38 596.356C1302.31 596.356 1290.69 593.936 1280.53 589.096C1270.61 584.256 1262.86 577.359 1257.3 568.405C1251.73 559.451 1248.95 549.045 1248.95 537.187C1248.95 516.617 1256.94 500.645 1272.91 489.271C1288.88 477.655 1311.02 471.847 1339.34 471.847H1388.34V503.065L1337.88 503.428C1323.36 503.428 1311.99 506.211 1303.76 511.777C1295.53 517.101 1291.42 524.845 1291.42 535.009C1291.42 542.995 1294.32 549.408 1300.13 554.248C1306.18 559.088 1314.41 561.508 1324.82 561.508C1338.13 561.508 1349.98 557.999 1360.39 550.981C1371.04 543.721 1379.63 533.799 1386.16 521.215L1390.88 551.707C1384.59 566.469 1375.03 577.601 1362.21 585.103C1349.38 592.605 1333.77 596.356 1315.38 596.356Z" fill="#2B2828"/>
<path d="M1551.47 592V324.469H1595.03V592H1551.47ZM1480.69 592V556.789H1666.54V592H1480.69ZM1506.82 359.68V324.469H1573.25V359.68H1506.82Z" fill="#2B2828"/>
<path d="M1789.01 592V391.624H1832.21V592H1789.01ZM1718.23 592V556.789H1900.09V592H1718.23ZM1744 426.835V391.624H1810.43V426.835H1744ZM1786.47 360.043V315.757H1833.66V360.043H1786.47Z" fill="#2B2828"/>
<path d="M2093.35 592L2091.54 549.529V459.505C2091.54 446.921 2087.3 436.999 2078.83 429.739C2070.36 422.479 2058.62 418.849 2043.62 418.849C2029.34 418.849 2017.6 422.116 2008.41 428.65C1999.45 435.184 1994.37 444.138 1993.16 455.512H1951.05C1952.26 441.234 1956.86 429.013 1964.85 418.849C1973.08 408.685 1983.97 400.941 1997.52 395.617C2011.31 390.051 2027.16 387.268 2045.07 387.268C2063.46 387.268 2079.31 390.172 2092.62 395.98C2106.18 401.788 2116.58 410.258 2123.84 421.39C2131.1 432.522 2134.73 446.074 2134.73 462.046V592H2093.35ZM2023.65 596.356C2010.59 596.356 1998.97 593.936 1988.81 589.096C1978.88 584.256 1971.14 577.359 1965.57 568.405C1960.01 559.451 1957.23 549.045 1957.23 537.187C1957.23 516.617 1965.21 500.645 1981.18 489.271C1997.16 477.655 2019.3 471.847 2047.61 471.847H2096.62V503.065L2046.16 503.428C2031.64 503.428 2020.27 506.211 2012.04 511.777C2003.81 517.101 1999.7 524.845 1999.7 535.009C1999.7 542.995 2002.6 549.408 2008.41 554.248C2014.46 559.088 2022.69 561.508 2033.09 561.508C2046.4 561.508 2058.26 557.999 2068.67 550.981C2079.31 543.721 2087.91 533.799 2094.44 521.215L2099.16 551.707C2092.87 566.469 2083.31 577.601 2070.48 585.103C2057.66 592.605 2042.05 596.356 2023.65 596.356Z" fill="#2B2828"/>
</svg>
