<svg width="2133" height="577" viewBox="0 0 2133 577" fill="none" xmlns="http://www.w3.org/2000/svg">
<path d="M732.614 261L752.378 5.53201H794.834L833.264 171.33L841.316 215.982L849.368 171.33L888.53 5.53201H929.888L950.018 261H918.542L907.562 89.712L905.732 38.472L895.118 89.712L854.858 261H826.31L786.782 89.712L776.534 37.74L774.338 89.712L763.724 261H732.614Z" fill="#2B2828"/>
<path d="M1081.19 265.392C1060.69 265.392 1043 261.244 1028.12 252.948C1013.23 244.408 1001.77 232.33 993.715 216.714C985.907 200.854 982.003 182.066 982.003 160.35C982.003 138.634 986.029 120.09 994.081 104.718C1002.13 89.102 1013.6 77.146 1028.48 68.85C1043.37 60.31 1061.18 56.04 1081.92 56.04C1113.15 56.04 1136.7 64.58 1152.56 81.66C1168.42 98.74 1175.49 122.286 1173.79 152.298H1006.16V128.508L1142.68 129.24C1141.7 114.6 1135.72 103.01 1124.74 94.47C1113.76 85.686 1099.49 81.294 1081.92 81.294C1059.96 81.294 1042.88 88.37 1030.68 102.522C1018.48 116.43 1012.38 135.95 1012.38 161.082C1012.38 176.942 1015.06 190.85 1020.43 202.806C1026.04 214.518 1033.98 223.668 1044.22 230.256C1054.47 236.6 1066.79 239.772 1081.19 239.772C1098.27 239.772 1112.54 235.746 1124.01 227.694C1135.72 219.398 1142.92 208.174 1145.6 194.022H1175.98C1172.32 216.226 1162.07 233.672 1145.24 246.36C1128.4 259.048 1107.05 265.392 1081.19 265.392Z" fill="#2B2828"/>
<path d="M1319.23 265.392C1298.74 265.392 1281.05 261.244 1266.16 252.948C1251.28 244.408 1239.81 232.33 1231.76 216.714C1223.95 200.854 1220.05 182.066 1220.05 160.35C1220.05 138.634 1224.07 120.09 1232.12 104.718C1240.18 89.102 1251.64 77.146 1266.53 68.85C1281.41 60.31 1299.22 56.04 1319.96 56.04C1351.2 56.04 1374.74 64.58 1390.6 81.66C1406.46 98.74 1413.54 122.286 1411.83 152.298H1244.2V128.508L1380.72 129.24C1379.74 114.6 1373.77 103.01 1362.79 94.47C1351.81 85.686 1337.53 81.294 1319.96 81.294C1298 81.294 1280.92 88.37 1268.72 102.522C1256.52 116.43 1250.42 135.95 1250.42 161.082C1250.42 176.942 1253.11 190.85 1258.48 202.806C1264.09 214.518 1272.02 223.668 1282.27 230.256C1292.51 236.6 1304.84 239.772 1319.23 239.772C1336.31 239.772 1350.59 235.746 1362.05 227.694C1373.77 219.398 1380.96 208.174 1383.65 194.022H1414.03C1410.37 216.226 1400.12 233.672 1383.28 246.36C1366.45 259.048 1345.1 265.392 1319.23 265.392Z" fill="#2B2828"/>
<path d="M1571.55 261C1559.35 261 1549.1 258.682 1540.8 254.046C1532.75 249.41 1526.65 242.822 1522.5 234.282C1518.6 225.498 1516.65 215.25 1516.65 203.538V20.904L1546.66 2.604V203.538C1546.66 209.394 1547.51 214.884 1549.22 220.008C1550.93 224.888 1554.35 228.914 1559.47 232.086C1564.59 235.014 1572.04 236.478 1581.8 236.478H1645.11V261H1571.55ZM1466.51 84.954V60.432H1614.37V84.954H1466.51Z" fill="#2B2828"/>
<path d="M1732.73 60.432V187.8C1732.73 203.172 1737.12 215.616 1745.91 225.132C1754.94 234.648 1766.77 239.406 1781.41 239.406C1797.76 239.406 1812.28 233.306 1824.96 221.106C1837.65 208.662 1846.92 189.874 1852.78 164.742L1858.27 203.904C1850.95 223.912 1839.97 239.162 1825.33 249.654C1810.93 260.146 1794.83 265.392 1777.02 265.392C1761.89 265.392 1748.71 262.22 1737.49 255.876C1726.51 249.288 1717.85 240.26 1711.5 228.792C1705.4 217.324 1702.35 203.904 1702.35 188.532V60.432H1732.73ZM1879.13 60.432V261H1850.58L1848.75 212.688V60.432H1879.13Z" fill="#2B2828"/>
<path d="M2041.05 56.04C2059.1 56.04 2074.96 60.432 2088.63 69.216C2102.29 78 2112.9 90.322 2120.47 106.182C2128.28 121.798 2132.18 139.976 2132.18 160.716C2132.18 181.212 2128.28 199.39 2120.47 215.25C2112.9 230.866 2102.29 243.188 2088.63 252.216C2074.96 261 2059.1 265.392 2041.05 265.392C2026.65 265.392 2013.47 262.342 2001.52 256.242C1989.81 250.142 1980.41 241.968 1973.34 231.72V326.148H1942.96V60.432H1971.51L1972.6 90.444C1979.68 79.952 1989.2 71.656 2001.15 65.556C2013.11 59.212 2026.41 56.04 2041.05 56.04ZM2035.19 239.406C2048.61 239.406 2060.2 236.112 2069.96 229.524C2079.96 222.936 2087.77 213.786 2093.38 202.074C2099 190.118 2101.8 176.332 2101.8 160.716C2101.8 144.856 2099 131.07 2093.38 119.358C2087.77 107.402 2079.96 98.252 2069.96 91.908C2060.2 85.32 2048.61 82.026 2035.19 82.026C2021.53 82.026 2009.08 85.808 1997.86 93.372C1986.88 100.936 1978.7 111.306 1973.34 124.482V196.584C1978.7 209.76 1986.88 220.252 1997.86 228.06C2009.08 235.624 2021.53 239.406 2035.19 239.406Z" fill="#2B2828"/>
<path d="M895.118 438.41C904.634 441.094 912.808 445.242 919.64 450.854C926.472 456.222 931.84 463.054 935.744 471.35C939.892 479.402 941.966 488.796 941.966 499.532C941.966 514.172 938.184 526.982 930.62 537.962C923.3 548.698 912.808 557.116 899.144 563.216C885.724 569.072 869.864 572 851.564 572H750.182V316.532H847.904C875.72 316.532 897.314 322.51 912.686 334.466C928.058 346.422 935.744 362.038 935.744 381.314C935.744 390.342 934.036 398.638 930.62 406.202C927.448 413.522 922.812 419.988 916.712 425.6C910.612 430.968 903.414 435.238 895.118 438.41ZM845.342 354.962H796.298V422.672H845.342C858.274 422.672 868.522 419.5 876.086 413.156C883.894 406.812 887.798 398.516 887.798 388.268C887.798 377.776 883.894 369.602 876.086 363.746C868.278 357.89 858.03 354.962 845.342 354.962ZM796.298 533.57H850.466C863.642 533.57 874.134 530.398 881.942 524.054C889.994 517.466 894.02 508.682 894.02 497.702C894.02 486.234 889.872 477.328 881.576 470.984C873.524 464.396 862.3 461.102 847.904 461.102H796.298V533.57Z" fill="#2B2828"/>
<path d="M1058.5 572V369.968H1102.05V572H1058.5ZM987.127 572V536.498H1170.49V572H987.127ZM1013.11 405.47V369.968H1080.09V405.47H1013.11ZM1055.93 338.126V293.474H1103.51V338.126H1055.93Z" fill="#2B2828"/>
<path d="M1319.23 576.392C1298 576.392 1279.7 572.244 1264.33 563.948C1248.96 555.408 1237.13 543.208 1228.83 527.348C1220.78 511.488 1216.75 492.578 1216.75 470.618C1216.75 448.658 1220.9 429.87 1229.2 414.254C1237.49 398.394 1249.45 386.316 1265.06 378.02C1280.68 369.724 1299.35 365.576 1321.06 365.576C1354.73 365.576 1379.5 374.97 1395.36 393.758C1411.46 412.546 1418.42 438.288 1416.22 470.984H1251.52L1251.89 439.142L1371.57 439.508C1370.59 427.796 1365.47 418.402 1356.2 411.326C1346.93 404.25 1335.21 400.712 1321.06 400.712C1301.05 400.712 1285.93 406.934 1275.68 419.378C1265.43 431.822 1260.31 449.512 1260.31 472.448C1260.31 485.624 1262.62 497.458 1267.26 507.95C1271.9 518.198 1278.48 526.25 1287.02 532.106C1295.81 537.718 1306.54 540.524 1319.23 540.524C1333.63 540.524 1345.58 537.108 1355.1 530.276C1364.86 523.444 1370.84 514.294 1373.03 502.826H1416.95C1414.03 525.518 1403.78 543.452 1386.21 556.628C1368.89 569.804 1346.56 576.392 1319.23 576.392Z" fill="#2B2828"/>
<path d="M1533.12 572V302.258H1577.04V572H1533.12ZM1461.75 572V536.498H1649.14V572H1461.75ZM1488.1 337.76V302.258H1555.08V337.76H1488.1Z" fill="#2B2828"/>
<path d="M1771.16 572V302.258H1815.08V572H1771.16ZM1699.79 572V536.498H1887.18V572H1699.79ZM1726.14 337.76V302.258H1793.12V337.76H1726.14Z" fill="#2B2828"/>
<path d="M2079.48 572L2077.65 529.178V438.41C2077.65 425.722 2073.38 415.718 2064.84 408.398C2056.3 401.078 2044.46 397.418 2029.33 397.418C2014.94 397.418 2003.1 400.712 1993.83 407.3C1984.8 413.888 1979.68 422.916 1978.46 434.384H1936C1937.22 419.988 1941.86 407.666 1949.91 397.418C1958.21 387.17 1969.19 379.362 1982.85 373.994C1996.76 368.382 2012.74 365.576 2030.8 365.576C2049.34 365.576 2065.32 368.504 2078.74 374.36C2092.41 380.216 2102.9 388.756 2110.22 399.98C2117.54 411.204 2121.2 424.868 2121.2 440.972V572H2079.48ZM2009.2 576.392C1996.03 576.392 1984.32 573.952 1974.07 569.072C1964.06 564.192 1956.26 557.238 1950.64 548.21C1945.03 539.182 1942.23 528.69 1942.23 516.734C1942.23 495.994 1950.28 479.89 1966.38 468.422C1982.49 456.71 2004.81 450.854 2033.36 450.854H2082.77V482.33L2031.9 482.696C2017.26 482.696 2005.79 485.502 1997.49 491.114C1989.2 496.482 1985.05 504.29 1985.05 514.538C1985.05 522.59 1987.98 529.056 1993.83 533.936C1999.93 538.816 2008.23 541.256 2018.72 541.256C2032.14 541.256 2044.1 537.718 2054.59 530.642C2065.32 523.322 2073.99 513.318 2080.57 500.63L2085.33 531.374C2078.99 546.258 2069.35 557.482 2056.42 565.046C2043.49 572.61 2027.75 576.392 2009.2 576.392Z" fill="#2B2828"/>
<path d="M78.5458 569C63.1171 569 49.3249 564.796 37.169 556.387C25.4806 547.978 16.3637 536.065 9.81822 520.649C3.27274 505.233 0 487.014 0 465.991C0 444.502 3.27274 421.378 9.81822 396.618C16.3637 371.859 26.1819 347.566 39.2729 323.741C52.3638 299.916 68.26 278.193 86.9614 258.573C105.663 238.952 127.169 223.302 151.481 211.623C176.26 199.477 203.377 193.404 232.832 193.404C250.598 193.404 269.767 196.674 290.339 203.214C310.91 209.287 329.378 217.93 345.742 229.142L333.118 277.493C310.209 265.346 289.871 257.638 272.105 254.368C254.339 250.631 237.975 248.762 223.014 248.762C202.91 248.762 184.442 253.434 167.611 262.777C151.247 272.12 136.52 284.5 123.429 299.916C110.806 314.865 100.052 331.683 91.1692 350.369C82.286 368.589 75.5068 386.808 70.8315 405.027C66.1561 423.246 63.8184 439.83 63.8184 454.78C63.8184 466.459 65.221 476.736 68.0262 485.612C70.8315 494.488 74.8055 501.262 79.9484 505.934C85.5588 510.605 91.8705 512.941 98.8835 512.941C116.182 512.941 135.819 503.598 157.793 484.911C179.767 465.758 203.144 437.728 227.923 400.823C253.17 363.917 278.884 319.07 305.066 266.281L331.014 292.208C300.625 354.807 270.469 406.662 240.546 447.772C211.092 488.415 182.806 518.78 155.689 538.868C128.572 558.956 102.858 569 78.5458 569ZM294.547 569C273.508 569 257.845 565.029 247.559 557.087C237.741 549.613 231.429 540.036 228.624 528.357C226.287 516.211 226.287 503.598 228.624 490.517C230.962 476.97 234.235 464.59 238.443 453.378L316.988 218.631C320.261 209.287 324.001 203.214 328.209 200.411C332.884 197.608 339.664 196.207 348.547 196.207C363.04 196.207 372.157 198.543 375.898 203.214C380.105 207.419 380.573 214.193 377.3 223.536L300.157 452.677C292.209 476.97 288.469 493.787 288.936 503.131C289.871 512.007 295.715 516.445 306.469 516.445C313.014 516.445 317.923 519.247 321.196 524.853C324.469 529.992 325.638 536.065 324.703 543.073C324.235 549.613 321.43 555.452 316.287 560.591C311.612 566.197 304.365 569 294.547 569Z" fill="#2B2828"/>
<path d="M294.596 569C288.05 569 283.141 566.197 279.869 560.591C276.596 555.452 275.427 549.613 276.362 543.073C276.83 536.065 279.635 529.992 284.778 524.853C289.921 519.247 297.401 516.445 307.219 516.445C318.44 516.445 331.297 510.839 345.791 499.627C359.817 488.415 376.414 470.897 395.583 447.071C414.752 422.779 437.428 391.246 463.61 352.472C489.792 313.23 520.415 265.814 555.48 210.222C559.688 203.681 565.065 200.878 571.61 201.813C578.623 202.747 584.233 205.784 588.441 210.922C592.649 216.061 592.883 221.667 589.143 227.74C549.402 295.011 515.038 350.837 486.051 395.217C457.532 439.13 432.519 473.933 411.012 499.627C389.505 524.853 369.635 542.839 351.401 553.584C332.7 563.861 313.765 569 294.596 569Z" fill="#2B2828"/>
<path d="M512.701 567.599C486.519 567.599 470.155 557.321 463.61 536.766C457.064 515.744 460.337 485.378 473.428 445.67L547.766 218.631C551.038 209.287 554.779 203.214 558.987 200.411C563.662 197.608 570.441 196.207 579.324 196.207C593.818 196.207 602.935 198.543 606.675 203.214C610.883 207.419 611.35 214.193 608.078 223.536L522.519 484.911C519.246 494.722 518.077 502.196 519.012 507.335C519.947 512.007 523.454 514.342 529.532 514.342C533.74 514.342 537.948 512.941 542.155 510.138C546.363 507.335 551.039 503.131 556.181 497.525C561.792 491.919 568.337 484.678 575.818 475.802C579.558 471.13 583.298 468.561 587.039 468.094C590.779 467.159 595.22 468.561 600.363 472.298C607.844 476.97 612.285 481.641 613.688 486.313C615.558 490.984 615.091 495.656 612.285 500.328C602.467 515.744 592.182 528.591 581.428 538.868C571.142 548.679 560.155 555.92 548.467 560.591C537.246 565.263 525.324 567.599 512.701 567.599ZM622.805 88.2931C613.454 88.2931 605.506 85.2566 598.961 79.1835C592.415 73.1104 589.143 64.2344 589.143 52.5554C589.143 39.9421 593.117 28.0295 601.065 16.8177C609.48 5.60591 622.338 0 639.636 0C649.454 0 657.636 3.03652 664.182 9.10957C670.727 14.7155 674 23.5915 674 35.7377C674 48.351 669.792 60.2635 661.377 71.4754C653.429 82.6872 640.571 88.2931 622.805 88.2931Z" fill="#2B2828"/>
</svg>
